<svg width="48" height="48" viewBox="0 0 48 48" fill="none" xmlns="http://www.w3.org/2000/svg">
    <circle cx="24" cy="24" r="24" fill="#5CB85C"/>
    <path fill-rule="evenodd" clip-rule="evenodd" d="M27.7324 14C28.1146 14 28.4247 14.3126 28.4247 14.6977L28.4251 15.4863C29.7729 15.5794 30.8923 16.0447 31.6846 16.8447C32.5495 17.7201 33.0045 18.9787 33 20.4884V28.9749C33 32.0744 31.0467 34 27.9036 34H20.0963C16.9532 34 15 32.0475 15 28.9042V20.4866C15 17.563 16.7419 15.6864 19.5828 15.4866L19.5833 14.6977C19.5833 14.3126 19.8935 14 20.2756 14C20.6578 14 20.9679 14.3126 20.9679 14.6977L20.9677 15.4688H27.0396L27.0401 14.6977C27.0401 14.3126 27.3503 14 27.7324 14ZM31.6153 22.2828H16.3846V28.9042C16.3846 31.2912 17.7028 32.6047 20.0963 32.6047H27.9036C30.2972 32.6047 31.6154 31.3154 31.6154 28.9749L31.6153 22.2828ZM28.1087 28.136C28.4909 28.136 28.8011 28.4486 28.8011 28.8337C28.8011 29.2188 28.4909 29.5314 28.1087 29.5314C27.7266 29.5314 27.4128 29.2188 27.4128 28.8337C27.4128 28.4486 27.7183 28.136 28.1004 28.136H28.1087ZM24.0126 28.136C24.3948 28.136 24.7049 28.4486 24.7049 28.8337C24.7049 29.2188 24.3948 29.5314 24.0126 29.5314C23.6305 29.5314 23.3166 29.2188 23.3166 28.8337C23.3166 28.4486 23.6222 28.136 24.0043 28.136H24.0126ZM19.9079 28.136C20.29 28.136 20.6002 28.4486 20.6002 28.8337C20.6002 29.2188 20.29 29.5314 19.9079 29.5314C19.5257 29.5314 19.211 29.2188 19.211 28.8337C19.211 28.4486 19.5174 28.136 19.8996 28.136H19.9079ZM28.1087 24.5205C28.4909 24.5205 28.8011 24.8331 28.8011 25.2182C28.8011 25.6033 28.4909 25.9159 28.1087 25.9159C27.7266 25.9159 27.4128 25.6033 27.4128 25.2182C27.4128 24.8331 27.7183 24.5205 28.1004 24.5205H28.1087ZM24.0126 24.5205C24.3948 24.5205 24.7049 24.8331 24.7049 25.2182C24.7049 25.6033 24.3948 25.9159 24.0126 25.9159C23.6305 25.9159 23.3166 25.6033 23.3166 25.2182C23.3166 24.8331 23.6222 24.5205 24.0043 24.5205H24.0126ZM19.9079 24.5205C20.29 24.5205 20.6002 24.8331 20.6002 25.2182C20.6002 25.6033 20.29 25.9159 19.9079 25.9159C19.5257 25.9159 19.211 25.6033 19.211 25.2182C19.211 24.8331 19.5174 24.5205 19.8996 24.5205H19.9079ZM27.0396 16.8642H20.9677L20.9679 17.7591C20.9679 18.1442 20.6578 18.4567 20.2756 18.4567C19.8935 18.4567 19.5833 18.1442 19.5833 17.7591L19.5828 16.8853C17.5149 17.0604 16.3846 18.3236 16.3846 20.4866V20.8874H31.6153L31.6154 20.4866C31.619 19.3377 31.3126 18.4447 30.7042 17.8308C30.1703 17.2911 29.3897 16.9687 28.4255 16.8857L28.4247 17.7591C28.4247 18.1442 28.1146 18.4567 27.7324 18.4567C27.3503 18.4567 27.0401 18.1442 27.0401 17.7591L27.0396 16.8642Z" fill="white"/>
    </svg>
    